<svg xmlns="http://www.w3.org/2000/svg" viewBox="0 0 8 6" fill="none">
    <path d="M1.896 5.592C1.872 5.592 1.82 5.56 1.74 5.496L0.444 0.768L0 0.636V0.144C0.608 0.0480001 0.948 0 1.02 0C1.06 0 1.144 0.0480001 1.272 0.144C1.4 0.232 1.472 0.304 1.488 0.36L2.184 3.288L2.424 4.32H2.556L3.384 1.56L3.156 0.756L2.712 0.636V0.144C3.32 0.0480001 3.66 0 3.732 0C3.772 0 3.856 0.0480001 3.984 0.144C4.112 0.232 4.184 0.304 4.2 0.36L4.896 3.288L5.136 4.32H5.268L6.204 0.744L5.412 0.66V0.0839996L6.876 0C6.916 0 6.984 0.0559998 7.08 0.168C7.176 0.28 7.224 0.364 7.224 0.42L5.7 5.376C5.028 5.52 4.664 5.592 4.608 5.592C4.584 5.592 4.532 5.56 4.452 5.496L3.756 2.856H3.684L2.988 5.376C2.316 5.52 1.952 5.592 1.896 5.592Z" fill="white"/>
    <style>
        path { fill: #000; }
        @media (prefers-color-scheme: dark) {
            path { fill: #FFF; }
        }
    </style>
</svg>
